<svg version="1.1" id="レイヤー_1" xmlns="http://www.w3.org/2000/svg" x="0" y="0" viewBox="0 0 106.7 29.8" xml:space="preserve"><style>.st0{fill:#1d3576}</style><g id="l-header__logo" transform="translate(44.79 -42.224)"><path id="パス_5" class="st0" d="M45.7 72c-1.6-.2-3.1-.6-4.6-1.2-4.9-2-8.3-6.6-8.9-11.9-.6-3.8.5-7.8 2.9-10.8 2.4-3.3 6.1-5.4 10.1-5.8.1 0 .1 0 .2-.1h2.9c.4.1.9.1 1.3.2 4.6.8 8.6 3.7 10.6 7.9.8 1.6 1.4 3.4 1.6 5.2v2.9c-.1.4-.1.9-.2 1.3-.8 4.6-3.7 8.6-7.9 10.6-1.6.8-3.4 1.4-5.3 1.6h-2.7zm1.4-7.6c4 0 7.3-3.3 7.2-7.3 0-4-3.3-7.3-7.3-7.2-4 0-7.2 3.2-7.2 7.2 0 4.1 3.2 7.3 7.3 7.3z"/><path id="パス_6" class="st0" d="M-36.3 42.2l3.3 7.5c1.5 3.5 3.1 6.9 4.6 10.5.3-.7.6-1.3.9-2 2.3-5.1 4.7-10.3 7-15.4.1-.4.5-.6.9-.6h6.9c.2 0 .4 0 .6.1-.2.7-.5 1.4-.9 2-2.2 5-4.5 10-6.7 15.1l-5.4 12c-.1.2-.1.4-.2.5h-6.2c-.2-.5-.5-1-.7-1.6l-6.7-14.9c-1.4-3.2-2.8-6.3-4.3-9.5-.5-1.2-1-2.4-1.6-3.5-.1-.3.1-.3.3-.3 2.7.1 5.5.1 8.2.1z"/><path id="パス_7" class="st0" d="M29.3 42.2v7.6c-.2.1-.5.1-.7.1-3 0-6.1-.1-9.1 0-2.7 0-5.3 1.5-6.5 4-1.9 3.5-.5 7.9 3 9.8.8.4 1.6.7 2.4.8.3 0 .6.1.9.1h9.3c.2 0 .5 0 .7.1.1.1.1.3.1.4v6.3c0 .4-.1.5-.5.5-3.4 0-6.9.1-10.3 0-2.8-.1-5.5-1.1-7.7-2.8-6.6-4.9-8-14.2-3.1-20.8.2-.3.5-.6.7-.9 2.6-3 6.3-4.9 10.2-5.1.1 0 .2 0 .3-.1h10.3z"/><path id="パス_8" class="st0" d="M-7 72V42.3H.6v29.8L-7 72z"/></g></svg>